<?xml version="1.0" encoding="UTF-8"?>
<svg id="Layer_3" data-name="Layer 3" xmlns="http://www.w3.org/2000/svg" viewBox="0 0 539 72">
  <defs>
    <style>
      .cls-1 {
        fill: #007b5b;
      }
    </style>
  </defs>
  <path class="cls-1" d="m2.64,3.35h3.38v23.92L31.84,3.35h4.25L9.53,28.22l28.61,26.63h-4.62L6.01,29.47v25.38h-3.38V3.35Z"/>
  <path class="cls-1" d="m82.68,23.74l-12.33,31.84h-.95l-9.54-26.85-9.83,26.85h-1.03l-11.96-31.84h3.08l9.46,25.24,9.83-26.27h1.03l9.61,26.27,9.76-25.24h2.86Z"/>
  <path class="cls-1" d="m116.35,54.85h-1.61l-.95-5.58c-2.42,3.74-6.68,6.46-13.21,6.46-7.85,0-12.77-4.7-12.77-10.49,0-6.75,5.65-10.86,13.35-10.86,5.43,0,10.42,2.79,12.18,4.99v-2.49c0-6.09-3.89-11.37-10.49-11.37-4.91,0-7.92,1.39-9.76,2.2l-1.17-2.42c1.69-1.1,7.19-2.57,10.86-2.49,8.14.15,13.65,5.65,13.65,14.16l-.07,17.9Zm-3.01-12.33c-2.27-2.42-6.89-5.72-12.25-5.65-5.58,0-10.13,2.93-10.13,8.14,0,5.5,4.62,8.36,9.98,8.36,5.94,0,12.4-4.84,12.4-10.49v-.37Z"/>
  <path class="cls-1" d="m129.92,29.03c2.42-3.96,7.34-6.24,11.81-6.24,8.14,0,13.87,5.79,13.87,14.09v17.97h-3.08v-17.97c0-8-6.02-11.37-11.01-11.37-4.18,0-11.44,3.37-11.44,11.37v17.97h-3.01v-31.11h1.61l1.25,5.28Z"/>
  <path class="cls-1" d="m192.13,47.73c-1.91,4.48-6.31,8-12.47,8-10.13,0-15.99-7.12-15.99-16.58s6.31-16.29,15.41-16.29c5.95,0,11.3,3.45,13.28,7.85l1.1-6.97h1.69v30.82c0,9.98-6.01,15.26-15.48,15.26-5.06,0-9.17-1.32-11.37-2.49l1.18-2.42c1.76.88,5.21,2.28,10.13,2.28,7.77,0,12.62-4.4,12.54-12.99v-6.46Zm-.07-8.58c0-8.66-5.79-13.79-12.77-13.79s-12.54,5.06-12.54,13.79,5.36,14.09,12.69,14.09c6.83,0,12.62-5.5,12.62-14.09Z"/>
  <path class="cls-1" d="m235.12,23.74l-22.16,45.34h-2.71l-.44-.73,7.63-15.55-14.23-29.05h3.45l12.69,25.83,12.47-25.83h3.3Z"/>
  <path class="cls-1" d="m239.15,39.15c0-9.47,6.68-16.29,15.99-16.29s15.78,7.19,15.78,16.29-6.68,16.58-16,16.58-15.77-7.48-15.77-16.58Zm28.69,0c0-8.73-6.46-13.79-12.91-13.79s-12.77,5.14-12.77,13.79,6.53,14.09,12.99,14.09,12.69-5.5,12.69-14.09Z"/>
  <path class="cls-1" d="m305.4,49.57c-2.49,4.11-7.34,6.24-11.81,6.24-8.14,0-13.87-5.8-13.87-14.09v-17.98h3.08v17.98c0,8,6.02,11.37,11.01,11.37,4.18,0,11.44-3.38,11.44-11.37v-17.98h3.01v31.11h-1.62l-1.25-5.28Z"/>
  <path class="cls-1" d="m322.86,29.03c2.42-3.96,7.34-6.24,11.81-6.24,8.14,0,13.87,5.79,13.87,14.09v17.97h-3.08v-17.97c0-8-6.02-11.37-11.01-11.37-4.18,0-11.44,3.37-11.44,11.37v17.97h-3.01v-31.11h1.62l1.25,5.28Z"/>
  <path class="cls-1" d="m385.07,47.73c-1.91,4.48-6.31,8-12.47,8-10.13,0-15.99-7.12-15.99-16.58s6.31-16.29,15.41-16.29c5.94,0,11.3,3.45,13.28,7.85l1.1-6.97h1.69v30.82c0,9.98-6.01,15.26-15.48,15.26-5.06,0-9.17-1.32-11.37-2.49l1.18-2.42c1.76.88,5.21,2.28,10.13,2.28,7.78,0,12.62-4.4,12.54-12.99v-6.46Zm-.07-8.58c0-8.66-5.8-13.79-12.77-13.79s-12.54,5.06-12.54,13.79,5.36,14.09,12.69,14.09c6.83,0,12.62-5.5,12.62-14.09Z"/>
  <path class="cls-1" d="m450.22,37.24l-12.33-28.47-12.47,28.47-1.25,2.79-6.68,14.82h-3.37l23.33-52.24h1.03l23.11,52.24h-3.45l-6.68-14.82-1.25-2.79Z"/>
  <path class="cls-1" d="m472.3,28.88c2.42-3.59,7.19-6.09,11.66-6.09,8.14,0,13.87,5.79,13.87,14.09v17.97h-3.08v-17.97c0-8-6.02-11.37-11.01-11.37-4.11,0-11.44,3.23-11.44,10.78v18.56h-3.01V3.35l2.71-.88h.3v26.41Z"/>
  <path class="cls-1" d="m511.32,29.03c2.42-3.96,7.34-6.24,11.81-6.24,8.14,0,13.87,5.79,13.87,14.09v17.97h-3.08v-17.97c0-8-6.02-11.37-11.01-11.37-4.18,0-11.44,3.37-11.44,11.37v17.97h-3.01v-31.11h1.62l1.25,5.28Z"/>
</svg>